# xmcd
#
# Track frame offsets: 
#        150
#        13632
#        33906
#        58688
#        77673
#        94783
#        115878
#        133980
#        155741
#        172998
#        194036
#        213060
#
# Disc length: 3113 seconds
#
# Revision: 0
# Processed by: cddbd v1.5.2PL0 Copyright (c) Steve Scherf et al.
# Submitted via: ExactAudioCopy v0.95b3
#
DISCID=a00c270c
DTITLE=The Mick Fleetwood Band  - Something big
DYEAR=1900
DGENRE=
TTITLE0=Bitter End
TTITLE1=Something Big
TTITLE2=Where The Wind Blows
TTITLE3=It's Only Money
TTITLE4=Walking With The Angels
TTITLE5=Making Other Plans
TTITLE6=These Walls
TTITLE7=Looking Into You
TTITLE8=Passion
TTITLE9=No Borders
TTITLE10=Watching Over You
TTITLE11=Heaven Sent
EXTD=
EXTT0=
EXTT1=
EXTT2=
EXTT3=
EXTT4=
EXTT5=
EXTT6=
EXTT7=
EXTT8=
EXTT9=
EXTT10=
EXTT11=
PLAYORDER=
